<svg xmlns="http://www.w3.org/2000/svg" viewBox="0 0 24 24" fill="currentColor"><path d="M12 2.163c3.204 0 3.584.012 4.85.07 1.366.062 2.633.35 3.608 1.325.975.975 1.263 2.242 1.325 3.608.058 1.266.07 1.646.07 4.85s-.012 3.584-.07 4.85c-.062 1.366-.35 2.633-1.325 3.608-.975.975-2.242 1.263-3.608 1.325-1.266.058-1.646.07-4.85.07s-3.584-.012-4.85-.07c-1.366-.062-2.633-.35-3.608-1.325-.975-.975-1.263-2.242-1.325-3.608C2.175 15.584 2.163 15.204 2.163 12s.012-3.584.07-4.85c.062-1.366.35-2.633 1.325-3.608.975-.975 2.242-1.263 3.608-1.325C8.416 2.175 8.796 2.163 12 2.163zm0 1.838c-3.16 0-3.532.012-4.777.069-1.027.047-1.585.216-1.955.36-.492.191-.843.42-1.213.79-.37.37-.599.721-.79 1.213-.144.37-.313.928-.36 1.955-.057 1.245-.069 1.617-.069 4.777s.012 3.532.069 4.777c.047 1.027.216 1.585.36 1.955.191.492.42.843.79 1.213.37.37.721.599 1.213.79.37.144.928.313 1.955.36 1.245.057 1.617.069 4.777.069s3.532-.012 4.777-.069c1.027-.047 1.585-.216 1.955-.36.492-.191.843-.42 1.213-.79.37-.37.599-.721.79-1.213.144-.37.313-.928.36-1.955.057-1.245.069-1.617.069-4.777s-.012-3.532-.069-4.777c-.047-1.027-.216-1.585-.36-1.955-.191-.492-.42-.843-.79-1.213-.37-.37-.721-.599-1.213-.79-.37-.144-.928-.313-1.955-.36-1.245-.057-1.617-.069-4.777-.069zm0 3.889a5.111 5.111 0 1 1 0 10.222 5.111 5.111 0 0 1 0-10.222zm0 1.838a3.273 3.273 0 1 0 0 6.546 3.273 3.273 0 0 0 0-6.546zm5.406-2.033a1.196 1.196 0 1 1 0 2.392 1.196 1.196 0 0 1 0-2.392z"/></svg>
